{"title":"Barfi 2012 BRRip 720p x264 AAC - ViZNU [P2PDL]","uid":8076556,"size":914794259,"categoryP":"video","categoryS":"hd___movies","magnet":"?xt=urn:btih:1cd322a5f9941ddfc04f695401a837fdbd35f54a&amp;dn=Barfi+2012+BRRip+720p+x264+AAC+-+ViZNU+%5BP2PDL%5D&amp;tr=udp%3A%2F%2Ftracker.openbittorrent.com%3A80&amp;tr=udp%3A%2F%2Fopen.demonii.com%3A1337&amp;tr=udp%3A%2F%2Ftracker.coppersurfer.tk%3A6969&amp;tr=udp%3A%2F%2Fexodus.desync.com%3A6969","seeders":4,"leechers":0,"uploader":"ValidusVyto","files":-1,"time":1359392567,"description":"_________________________  Visit us at _________________________\n  &lt;a href=&quot;\nhttp://p2pdl.com&quot; rel=&quot;nofollow&quot; target=&quot;_NEW&quot;&gt;\nhttp://p2pdl.com&lt;/a&gt;  ____________________________ &lt;a href=&quot; http://p2pdl.com&quot; rel=&quot;nofollow&quot; target=&quot;_NEW&quot;&gt; http://p2pdl.com&lt;/a&gt;\n\n\nBarfi 2012 BRRip 720p x264 AAC - ViZNU [P2PDL]\n\t\t\t\t\nGenre: Comedy | Drama | Romance\nThree young people learn that love can neither be defined nor contained by society's norms of normal and abnormal.\nDirector: Anurag Basu\nStars:  Ranbir Kapoor, Priyanka Chopra, Ileana D'Cruz and Haradhan Bannerjee\nRated: N/A\n\nImdb: http://www.imdb.com/title/tt2082197/\n\nTrailer:\n\n\nGeneral\nFormat                         : MPEG-4\nFile size                      : 866 MiB\nDuration                       : 2h 31mn\nOverall bit rate mode          : Variable\nOverall bit rate               : 802 Kbps\nMovie name                     : Barfi 2012 BRRip 720p x264 AAC ViZNU [P2PDL]\n\nSource                         : 720p - x264 - AC3 - [DDR] (Thanks)\n\nVideo\nID                             : 1\nFormat                         : AVC\nWidth                          : 1 280 pixels\nHeight                         : 544 pixels\nDisplay aspect ratio           : 2.35:1\nFrame rate mode                : Variable\nFrame rate                     : 24.000 fps\nStream size                    : 756 MiB (87%)\nWriting library                : x264 core 128\n\nAudio\nFormat                         : AAC\nBit rate                       : 96.0 Kbps\nSampling rate                  : 48.0 KHz\nStream size                    : 104 MiB (12%)\nLanguage                       : Hindi\n\nSubtitle                       : Yes (English)\n\n\nScreens:\n &lt;a href=&quot;\nhttp://www.shotpix.com/images/39326015702910265816.jpg&quot; rel=&quot;nofollow&quot; target=&quot;_NEW&quot;&gt;\nhttp://www.shotpix.com/images/39326015702910265816.jpg&lt;/a&gt; &lt;a href=&quot;\nhttp://www.shotpix.com/images/70325140113204997824.jpg&quot; rel=&quot;nofollow&quot; target=&quot;_NEW&quot;&gt;\nhttp://www.shotpix.com/images/70325140113204997824.jpg&lt;/a&gt; &lt;a href=&quot;\nhttp://www.shotpix.com/images/88955107409940930896.jpg&quot; rel=&quot;nofollow&quot; target=&quot;_NEW&quot;&gt;\nhttp://www.shotpix.com/images/88955107409940930896.jpg&lt;/a&gt; &lt;a href=&quot;\nhttp://www.shotpix.com/images/79532535951533352391.jpg&quot; rel=&quot;nofollow&quot; target=&quot;_NEW&quot;&gt;\nhttp://www.shotpix.com/images/79532535951533352391.jpg&lt;/a&gt; &lt;a href=&quot;\nhttp://www.shotpix.com/images/30824305504541490152.jpg&quot; rel=&quot;nofollow&quot; target=&quot;_NEW&quot;&gt;\nhttp://www.shotpix.com/images/30824305504541490152.jpg&lt;/a&gt;\n\n\nThumbs:\n &lt;a href=&quot;\nhttp://www.shotpix.com/images/03706248181790992470.jpg&quot; rel=&quot;nofollow&quot; target=&quot;_NEW&quot;&gt;\nhttp://www.shotpix.com/images/03706248181790992470.jpg&lt;/a&gt;\n\n----------------------------------------------------------------------------------------------------\n\n\nRecommend to you to use latest version of VLC player. Install K-Lite Codec Pack or shark007 codecs\nin case of any kind of problem in playback (For non-VLC Media Player users). Alternatively, install\nCore AVC codecs, the fastest decoder that there is coupled with Community Center Codec Pack and play\non Windows Media Player Classic. Check sample to be sure.\nEnjoy!\n\nGreets to: Vitamin_X, a2zRG, MusiK_KinG, Neon, Kuroyukihime, TorDigger, Ash968, StyLishSaLH and staff members at\nExtraTorrent, TPB, H33T, KAT, 1337x, PublicHD, Ahashare, BTScene, SilverTorrent, LimeTorrents, TorrentMafia,\nP2PDL, and all others.\n\nEncoder Notes: Looking For Early Access To Anything You Can Provide DVDScr, R5, DVDR, BluRay, Direct\nAudio, Early Music Releases, Seedboxes, Dedicated Servers anything u can provide, Advance / Promo CDs/\nDVDs. If You Got anything to offer contact me at &quot;&lt;a class=&quot;__cf_email__&quot; href=&quot;/cdn-cgi/l/email-protection&quot; data-cfemail=&quot;1a6a687d5a726f697234797577&quot;&gt;[email&amp;#160;protected]&lt;/a&gt;&lt;script cf-hash='f9e31' type=&quot;text/javascript&quot;&gt;\n/* &lt;![CDATA[ */!function(){try{var t=&quot;currentScript&quot;in document?document.currentScript:function(){for(var t=document.getElementsByTagName(&quot;script&quot;),e=t.length;e--;)if(t[e].getAttribute(&quot;cf-hash&quot;))return t[e]}();if(t&amp;&amp;t.previousSibling){var e,r,n,i,c=t.previousSibling,a=c.getAttribute(&quot;data-cfemail&quot;);if(a){for(e=&quot;&quot;,r=parseInt(a.substr(0,2),16),n=2;a.length-n;n+=2)i=parseInt(a.substr(n,2),16)^r,e+=String.fromCharCode(i);e=document.createTextNode(e),c.parentNode.replaceChild(e,c)}}}catch(u){}}();/* ]]&gt; */&lt;/script&gt;&quot;.\n\nFacebook Fan Page: www . facebook . com / p2pdl","torrent":{"xt":"urn:btih:1cd322a5f9941ddfc04f695401a837fdbd35f54a","amp;dn":"Barfi+2012+BRRip+720p+x264+AAC+-+ViZNU+%5BP2PDL%5D","amp;tr":["udp%3A%2F%2Ftracker.openbittorrent.com%3A80","udp%3A%2F%2Fopen.demonii.com%3A1337","udp%3A%2F%2Ftracker.coppersurfer.tk%3A6969","udp%3A%2F%2Fexodus.desync.com%3A6969"],"infoHash":"1cd322a5f9941ddfc04f695401a837fdbd35f54a","infoHashBuffer":{"type":"Buffer","data":[28,211,34,165,249,148,29,223,192,79,105,84,1,168,55,253,189,53,245,74]},"announce":[],"urlList":[]}}